<svg width="1205" height="110" viewBox="0 0 1205 110" fill="none" xmlns="http://www.w3.org/2000/svg">
<g clip-path="url(#clip0_1_1668)">
<rect width="1205" height="110" fill="#0073EE"/>
<path d="M1190 16.9734C1190 19.3533 1189.05 21.6358 1187.35 23.3187C1185.65 25.0015 1183.35 25.9469 1180.95 25.9469C1178.54 25.9469 1176.24 25.0015 1174.54 23.3187C1172.85 21.6358 1171.89 19.3533 1171.89 16.9734C1171.89 14.5935 1172.85 12.3111 1174.54 10.6283C1176.24 8.94542 1178.54 8 1180.95 8C1183.35 8 1185.65 8.94542 1187.35 10.6283C1189.05 12.3111 1190 14.5935 1190 16.9734Z" fill="white"/>
<path d="M1188.64 68.6386C1188.58 68.5189 1188.54 68.6425 1188.52 69.0094C1188.48 69.6453 1188.37 70.2454 1188.2 70.8097C1187.09 74.3007 1183.87 76.3808 1180.27 75.7442C1177.98 75.3384 1175.92 73.7084 1175.12 71.4743C1175.03 71.2473 1174.95 70.8105 1174.85 70.1637C1174.79 69.7191 1174.69 69.283 1174.57 68.8555C1174.56 61.7787 1174.56 46.8041 1174.56 39.7009C1174.56 37.7063 1174.67 36.3717 1174.9 35.697C1175.85 32.9359 1178.55 31.005 1181.57 30.9654C1184.18 30.9296 1186.2 32.024 1187.63 34.2488C1188.76 36.0047 1188.68 37.6091 1188.68 40.1417C1188.69 48.8835 1188.69 63.2929 1188.69 67.6009C1188.69 67.9631 1188.67 68.309 1188.64 68.6386Z" fill="white"/>
<path d="M1148.3 40.9087C1149.26 40.2427 1150.35 39.7722 1151.5 39.5239C1152.64 39.2757 1153.83 39.2547 1154.99 39.462C1156.15 39.6693 1157.26 40.1009 1158.25 40.7322C1159.24 41.3636 1160.1 42.1821 1160.77 43.1413C1161.45 44.1005 1161.93 45.1815 1162.18 46.3226C1162.44 47.4636 1162.46 48.6423 1162.26 49.7915C1162.06 50.9407 1161.63 52.0378 1161 53.0202C1160.36 54.0025 1159.54 54.8509 1158.58 55.5169C1157.62 56.1829 1156.53 56.6535 1155.38 56.9017C1154.23 57.1499 1153.05 57.1709 1151.89 56.9636C1150.73 56.7563 1149.62 56.3247 1148.63 55.6933C1147.64 55.062 1146.78 54.2434 1146.1 53.2842C1145.43 52.325 1144.95 51.244 1144.69 50.103C1144.44 48.9619 1144.41 47.7832 1144.62 46.634C1144.82 45.4848 1145.25 44.3878 1145.88 43.4054C1146.51 42.423 1147.33 41.5747 1148.3 40.9087Z" fill="white"/>
<path d="M1133.53 75.1367C1133.53 77.4826 1132.59 79.7324 1130.91 81.3912C1129.24 83.05 1126.97 83.9819 1124.6 83.9819C1122.23 83.9819 1119.96 83.05 1118.29 81.3912C1116.62 79.7324 1115.68 77.4826 1115.68 75.1367C1115.68 72.7908 1116.62 70.541 1118.29 68.8822C1119.96 67.2234 1122.23 66.2915 1124.6 66.2915C1126.97 66.2915 1129.24 67.2234 1130.91 68.8822C1132.59 70.541 1133.53 72.7908 1133.53 75.1367Z" fill="white"/>
<path d="M1160.66 99.4814C1160.63 99.5079 1160.6 99.5413 1160.59 99.5817C1160.58 99.5925 1160.58 99.6022 1160.57 99.6097C1160.56 99.6171 1160.55 99.622 1160.54 99.6239C1160.53 99.6259 1160.51 99.6247 1160.5 99.6205C1160.49 99.6164 1160.48 99.6094 1160.48 99.6003C1160.46 99.5723 1160.44 99.5405 1160.44 99.5048C1160.04 96.7157 1157.6 94.365 1154.97 93.9103C1151.42 93.297 1148.31 95.0973 1146.93 98.3551C1146.91 98.3877 1146.88 98.5727 1146.82 98.9101C1146.78 99.1417 1146.65 99.2614 1146.43 99.2692C1146.4 89.7563 1146.4 80.2449 1146.43 70.7351C1146.44 69.0125 1146.55 67.7984 1146.77 67.0925C1147.42 64.9984 1148.76 63.5028 1150.79 62.6058C1154.63 60.9057 1159.08 63.0535 1160.29 66.7637C1160.53 67.5037 1160.66 68.9379 1160.66 71.0662C1160.68 80.5387 1160.68 90.0105 1160.66 99.4814Z" fill="white"/>
<path d="M1188.64 68.6386C1188.78 70.3106 1188.7 72.2392 1188.7 73.5871C1188.72 103.116 1188.46 161.457 1188.46 165.327C1188.46 167.242 1188.33 169.754 1188.07 172.862C1187.24 182.858 1184.4 192.315 1179.57 201.233C1179.18 201.965 1178.76 202.659 1178.31 203.315C1178.01 203.477 1177.58 203.787 1177.03 204.246C1176.24 204.897 1174.62 205.664 1173.53 205.874C1169.87 206.576 1166.78 162.704 1166.28 158.987C1166.07 157.44 1166.18 155.774 1166.61 153.99C1166.97 153.226 1167.36 156.347 1167.76 155.577C1167.62 155.876 1168.41 154.352 1167.76 155.577C1171.25 189.139 1174.15 174.499 1174.22 165.56C1174.24 163.597 1174.51 104.898 1174.51 72.7476C1174.51 71.6352 1174.43 70.1801 1174.57 68.8555C1174.69 69.283 1174.79 69.7191 1174.85 70.1637C1174.95 70.8105 1175.03 71.2473 1175.12 71.4743C1175.92 73.7084 1177.98 75.3384 1180.27 75.7442C1183.87 76.3808 1187.09 74.3007 1188.2 70.8097C1188.37 70.2454 1188.48 69.6453 1188.52 69.0094C1188.54 68.6425 1188.58 68.5189 1188.64 68.6386Z" fill="white"/>
<path d="M1131.89 113.604C1131.03 110.474 1128.73 108.152 1125.37 107.933C1121.41 107.671 1118.8 109.943 1117.67 113.539C1117.65 105.157 1117.66 104.768 1117.69 96.3997C1117.7 94.6725 1118.08 93.2547 1118.84 92.1462C1122.77 86.4142 1131.83 89.0236 1131.91 96.0475C1131.95 99.6046 1131.94 100.133 1131.89 113.604Z" fill="white"/>
<path d="M1160.66 99.4814C1160.64 107.628 1160.64 115.773 1160.66 123.918C1160.67 127.063 1160.32 130.155 1159.62 133.193C1159.4 133.518 1159.19 133.849 1159 134.186C1158.72 134.673 1158.52 135.005 1158.39 135.182C1156.52 137.684 1153.42 138.633 1150.43 137.57C1148.61 136.919 1146.99 135.301 1146.37 133.535C1146.04 132.593 1145.82 131.365 1145.72 129.851C1146.21 128.058 1146.45 126.489 1146.45 125.143C1146.42 116.517 1146.42 107.893 1146.43 99.2692C1146.65 99.2614 1146.78 99.1417 1146.82 98.9101C1146.88 98.5727 1146.91 98.3877 1146.93 98.3551C1148.31 95.0973 1151.42 93.297 1154.97 93.9103C1157.6 94.365 1160.04 96.7157 1160.44 99.5048C1160.44 99.5405 1160.46 99.5723 1160.48 99.6003C1160.48 99.6094 1160.49 99.6164 1160.5 99.6205C1160.51 99.6247 1160.53 99.6259 1160.54 99.6239C1160.55 99.622 1160.56 99.6171 1160.57 99.6097C1160.58 99.6022 1160.58 99.5925 1160.59 99.5817C1160.6 99.5413 1160.63 99.5079 1160.66 99.4814Z" fill="white"/>
<path d="M1117.45 124.336C1117.43 125.708 1117.65 126.925 1118.09 127.985C1119.56 131.507 1123.28 133.218 1126.89 131.982C1128.72 131.356 1130.12 130.057 1131.11 128.086C1130.59 129.962 1129.81 131.693 1128.76 133.279C1126.06 137.353 1122.2 140.555 1117.59 142.213C1112.38 144.088 1106.94 144.235 1101.79 142.054C1095.14 139.235 1090.54 133.841 1089.08 126.78C1088.84 125.578 1088.73 123.702 1088.76 121.153C1088.78 119.17 1088.78 115.778 1088.77 110.976C1088.76 110.077 1088.97 109.127 1089.38 108.124C1091.6 102.723 1099.21 102.212 1102.11 107.333C1102.72 108.406 1103.02 109.779 1103.03 111.451C1103.03 111.512 1103.03 115.204 1103.03 122.526C1103.03 127.566 1108.13 130.753 1112.83 129.156C1115.06 128.4 1116.59 126.794 1117.45 124.336Z" fill="white"/>
<path d="M1131.89 113.604C1131.85 117.096 1131.86 120.592 1131.9 124.093C1131.92 125.373 1131.66 126.703 1131.11 128.086C1130.12 130.057 1128.72 131.356 1126.89 131.982C1123.28 133.218 1119.56 131.507 1118.09 127.985C1117.65 126.925 1117.43 125.708 1117.45 124.336C1117.57 123.571 1117.63 123.067 1117.63 122.825C1117.65 119.723 1117.67 116.628 1117.67 113.539C1118.8 109.943 1121.41 107.671 1125.37 107.933C1128.73 108.152 1131.03 110.474 1131.89 113.604Z" fill="white"/>
<path d="M1145.72 129.851C1145.82 131.365 1146.04 132.593 1146.37 133.535C1146.99 135.301 1148.61 136.919 1150.43 137.57C1153.42 138.633 1156.52 137.684 1158.39 135.182C1158.52 135.005 1158.72 134.673 1159 134.186C1159.19 133.849 1159.4 133.518 1159.62 133.193C1158.41 138.126 1156.67 142.521 1154.39 146.378C1150.31 153.28 1144.8 159 1137.84 163.537C1131.02 167.991 1123.25 170.684 1115.13 171.771C1113.74 171.959 1112.38 172.046 1111.06 172.03C1112.36 171.623 1113.45 171.046 1114.34 170.3C1116.58 168.42 1117.53 164.714 1116.19 162.175C1115.19 160.28 1113.67 158.925 1111.64 158.11C1111.63 158.104 1111.62 158.094 1111.61 158.081C1111.6 158.068 1111.59 158.053 1111.59 158.038C1111.59 158.022 1111.59 158.006 1111.6 157.991C1111.6 157.976 1111.61 157.964 1111.63 157.954C1111.64 157.943 1111.66 157.933 1111.68 157.924C1121.39 157.413 1130.47 152.826 1137.03 145.795C1141.28 141.243 1144.17 135.928 1145.72 129.851Z" fill="white"/>
<path d="M1166.61 153.99C1166.18 155.774 1166.07 157.44 1166.28 158.987C1166.78 162.704 1169.87 206.576 1173.53 205.874C1174.62 205.664 1176.24 204.897 1177.03 204.246C1177.58 203.787 1178.01 203.477 1178.31 203.315C1176.85 205.857 1175.08 208.495 1173.01 211.228C1168.1 217.67 1162.56 181.544 1155.85 186.131C1153.77 187.555 1151.64 188.903 1149.46 190.175C1148.77 190.573 1148.06 190.931 1147.31 191.25C1147.67 190.765 1148.03 190.285 1148.38 189.809C1149.65 188.076 1150.12 186.029 1149.61 183.963C1148.84 180.833 1145.75 178.382 1142.37 178.711C1141.91 178.755 1141.27 178.849 1140.47 178.996C1141.03 178.647 1141.6 178.311 1142.18 177.988C1145.75 175.967 1148.89 173.859 1151.6 171.664C1154.27 169.504 1156.93 166.916 1159.59 163.898C1162.26 160.859 1164.61 157.556 1166.61 153.99Z" fill="white"/>
<path d="M1147.31 191.25C1136.36 197.078 1123.82 200.095 1111.43 200.52C1110.93 200.537 1110.41 200.536 1109.88 200.517C1112.09 199.561 1113.98 198.276 1114.79 195.907C1115.59 193.569 1115.29 191.395 1113.9 189.387C1113.02 188.118 1111.68 187.157 1109.87 186.502C1112.71 186.415 1114.62 186.307 1115.6 186.178C1117.85 185.88 1120.26 185.593 1122.34 185.187C1128.67 183.96 1134.71 181.897 1140.47 178.996C1141.27 178.849 1141.91 178.755 1142.37 178.711C1145.75 178.382 1148.84 180.833 1149.61 183.963C1150.12 186.029 1149.65 188.076 1148.38 189.809C1148.03 190.285 1147.67 190.765 1147.31 191.25Z" fill="white"/>
<path d="M1109.87 186.502C1111.68 187.157 1113.02 188.118 1113.9 189.387C1115.29 191.395 1115.59 193.569 1114.79 195.907C1113.98 198.276 1112.09 199.561 1109.88 200.517C1109.45 200.55 1109 200.618 1108.58 200.615C1101.95 200.59 1095.4 199.867 1088.93 198.444C1086.89 197.995 1084.88 197.452 1082.92 196.817C1082.95 196.786 1082.98 196.769 1083 196.768C1083.02 196.767 1083.03 196.761 1083.04 196.75C1083.05 196.739 1083.06 196.725 1083.06 196.709C1083.06 196.694 1083.06 196.678 1083.05 196.664C1083.04 196.651 1083.03 196.642 1083.01 196.637C1082.69 196.553 1082.37 196.418 1082.06 196.231C1076.94 193.153 1077.2 185.891 1083.05 183.778C1083.56 183.593 1084.22 183.475 1085.03 183.424C1085.69 183.382 1086.37 183.349 1087.06 183.326C1094.48 185.537 1102.08 186.595 1109.87 186.502Z" fill="white"/>
<path d="M15 16.9734C15 19.3533 15.9539 21.6358 17.6519 23.3187C19.3498 25.0015 21.6527 25.9469 24.054 25.9469C26.4552 25.9469 28.7579 25.0015 30.4559 23.3187C32.1538 21.6358 33.1078 19.3533 33.1078 16.9734C33.1078 14.5935 32.1538 12.3111 30.4559 10.6283C28.7579 8.94542 26.4552 8 24.054 8C21.6527 8 19.3498 8.94542 17.6519 10.6283C15.9539 12.3111 15 14.5935 15 16.9734Z" fill="white"/>
<path d="M16.3623 68.6386C16.4203 68.5189 16.4596 68.6425 16.48 69.0094C16.5176 69.6453 16.6258 70.2454 16.8047 70.8097C17.9129 74.3007 21.127 76.3808 24.7316 75.7442C27.0233 75.3384 29.0843 73.7084 29.8843 71.4743C29.9659 71.2473 30.0545 70.8105 30.1502 70.1637C30.2145 69.7191 30.3062 69.283 30.4255 68.8555C30.438 61.7787 30.4443 46.8041 30.4443 39.7009C30.4443 37.7063 30.329 36.3717 30.0984 35.697C29.1525 32.9359 26.4539 31.005 23.4281 30.9654C20.8242 30.9296 18.8046 32.024 17.3694 34.2488C16.2353 36.0047 16.3153 37.6091 16.3153 40.1417C16.3121 48.8835 16.3106 63.2929 16.3106 67.6009C16.3106 67.9631 16.3278 68.309 16.3623 68.6386Z" fill="white"/>
<path d="M56.7027 40.9087C55.7394 40.2427 54.6526 39.7722 53.5044 39.5239C52.3561 39.2757 51.1688 39.2547 50.0103 39.462C48.8517 39.6693 47.7447 40.1009 46.7524 40.7322C45.76 41.3636 44.9017 42.1821 44.2266 43.1413C43.5514 44.1005 43.0726 45.1815 42.8175 46.3226C42.5623 47.4636 42.5359 48.6423 42.7396 49.7915C42.9433 50.9407 43.3732 52.0378 44.0048 53.0202C44.6363 54.0025 45.4571 54.8509 46.4204 55.5169C47.3836 56.1829 48.4704 56.6535 49.6187 56.9017C50.7669 57.1499 51.9542 57.1709 53.1127 56.9636C54.2712 56.7563 55.3783 56.3247 56.3707 55.6933C57.363 55.062 58.2213 54.2434 58.8964 53.2842C59.5715 52.325 60.0504 51.244 60.3055 50.103C60.5606 48.9619 60.5871 47.7832 60.3834 46.634C60.1797 45.4848 59.7498 44.3878 59.1182 43.4054C58.4867 42.423 57.6659 41.5747 56.7027 40.9087Z" fill="white"/>
<path d="M71.4741 75.1367C71.4741 77.4826 72.4143 79.7324 74.088 81.3912C75.7617 83.05 78.0317 83.9819 80.3986 83.9819C82.7655 83.9819 85.0355 83.05 86.7092 81.3912C88.3829 79.7324 89.3231 77.4826 89.3231 75.1367C89.3231 72.7908 88.3829 70.541 86.7092 68.8822C85.0355 67.2234 82.7655 66.2915 80.3986 66.2915C78.0317 66.2915 75.7617 67.2234 74.088 68.8822C72.4143 70.541 71.4741 72.7908 71.4741 75.1367Z" fill="white"/>
<path d="M44.3405 99.4814C44.375 99.5079 44.3993 99.5413 44.4134 99.5817C44.417 99.5925 44.4236 99.6022 44.4323 99.6097C44.4411 99.6171 44.4517 99.622 44.463 99.6239C44.4744 99.6259 44.4861 99.6247 44.4968 99.6205C44.5075 99.6164 44.5169 99.6094 44.524 99.6003C44.5444 99.5723 44.5569 99.5405 44.5616 99.5048C44.9569 96.7157 47.3992 94.365 50.0298 93.9103C53.5756 93.297 56.6932 95.0973 58.0743 98.3551C58.0884 98.3877 58.1245 98.5727 58.1825 98.9101C58.2233 99.1417 58.3535 99.2614 58.5732 99.2692C58.6014 89.7563 58.5998 80.2449 58.5684 70.7351C58.5637 69.0125 58.4508 67.7984 58.2296 67.0925C57.5755 64.9984 56.2351 63.5028 54.2085 62.6058C50.3686 60.9057 45.9169 63.0535 44.7075 66.7637C44.466 67.5037 44.3436 68.9379 44.3405 71.0662C44.3232 80.5387 44.3232 90.0105 44.3405 99.4814Z" fill="white"/>
<path d="M16.3623 68.6386C16.2164 70.3106 16.3035 72.2392 16.3012 73.5871C16.2839 103.116 16.5357 161.457 16.5388 165.327C16.5404 167.242 16.6706 169.754 16.9294 172.862C17.7639 182.858 20.5967 192.315 25.428 201.233C25.8249 201.965 26.2445 202.659 26.6869 203.315C26.988 203.477 27.417 203.787 27.9739 204.246C28.7644 204.897 30.3831 205.664 31.4725 205.874C35.1312 206.576 38.2159 162.704 38.7218 158.987C38.932 157.44 38.8198 155.774 38.3853 153.99C38.0277 153.226 37.6449 156.347 37.2371 155.577C37.3751 155.876 36.5893 154.352 37.2371 155.577C33.7454 189.139 30.8467 174.499 30.7784 165.56C30.7627 163.597 30.4945 104.898 30.4913 72.7476C30.4913 71.6352 30.5666 70.1801 30.4255 68.8555C30.3062 69.283 30.2145 69.7191 30.1502 70.1637C30.0545 70.8105 29.9659 71.2473 29.8843 71.4743C29.0843 73.7084 27.0233 75.3384 24.7316 75.7442C21.127 76.3808 17.9129 74.3007 16.8047 70.8097C16.6258 70.2454 16.5176 69.6453 16.48 69.0094C16.4596 68.6425 16.4203 68.5189 16.3623 68.6386Z" fill="white"/>
<path d="M73.114 113.604C73.9681 110.474 76.2739 108.152 79.6268 107.933C83.5938 107.671 86.2008 109.943 87.3326 113.539C87.3514 105.157 87.3435 104.768 87.309 96.3997C87.3012 94.6725 86.9177 93.2547 86.1585 92.1462C82.2338 86.4142 73.1658 89.0236 73.0881 96.0475C73.0489 99.6046 73.0576 100.133 73.114 113.604Z" fill="white"/>
<path d="M44.3405 99.4814C44.3609 107.628 44.3609 115.773 44.3405 123.918C44.3342 127.063 44.6801 130.155 45.3781 133.193C45.604 133.518 45.8118 133.849 46.0016 134.186C46.2761 134.673 46.4792 135.005 46.611 135.182C48.4839 137.684 51.5827 138.633 54.5661 137.57C56.3896 136.919 58.0131 135.301 58.6296 133.535C58.959 132.593 59.1755 131.365 59.279 129.851C58.7927 128.058 58.5512 126.489 58.5543 125.143C58.5778 116.517 58.5841 107.893 58.5732 99.2692C58.3535 99.2614 58.2233 99.1417 58.1825 98.9101C58.1245 98.5727 58.0884 98.3877 58.0743 98.3551C56.6932 95.0973 53.5756 93.297 50.0298 93.9103C47.3992 94.365 44.9569 96.7157 44.5616 99.5048C44.5569 99.5405 44.5444 99.5723 44.524 99.6003C44.5169 99.6094 44.5075 99.6164 44.4968 99.6205C44.4861 99.6247 44.4744 99.6259 44.463 99.6239C44.4517 99.622 44.4411 99.6171 44.4323 99.6097C44.4236 99.6022 44.417 99.5925 44.4134 99.5817C44.3993 99.5413 44.375 99.5079 44.3405 99.4814Z" fill="white"/>
<path d="M87.5537 124.336C87.5663 125.708 87.3514 126.925 86.909 127.985C85.4408 131.507 81.7233 133.218 78.1116 131.982C76.2841 131.356 74.8755 130.057 73.8858 128.086C74.4065 129.962 75.1924 131.693 76.2434 133.279C78.9398 137.353 82.8009 140.555 87.4102 142.213C92.6195 144.088 98.0641 144.235 103.21 142.054C109.862 139.235 114.464 133.841 115.916 126.78C116.163 125.578 116.273 123.702 116.245 121.153C116.223 119.17 116.219 115.778 116.233 110.976C116.236 110.077 116.032 109.127 115.619 108.124C113.4 102.723 105.786 102.212 102.89 107.333C102.284 108.406 101.977 109.779 101.968 111.451C101.968 111.512 101.968 115.204 101.968 122.526C101.968 127.566 96.8712 130.753 92.1678 129.156C89.9435 128.4 88.4055 126.794 87.5537 124.336Z" fill="white"/>
<path d="M73.114 113.604C73.1485 117.096 73.1438 120.592 73.0999 124.093C73.0827 125.373 73.3446 126.703 73.8858 128.086C74.8755 130.057 76.2841 131.356 78.1116 131.982C81.7233 133.218 85.4408 131.507 86.909 127.985C87.3514 126.925 87.5663 125.708 87.5537 124.336C87.4314 123.571 87.3686 123.067 87.3655 122.825C87.3451 119.723 87.3341 116.628 87.3326 113.539C86.2008 109.943 83.5938 107.671 79.6268 107.933C76.2739 108.152 73.9681 110.474 73.114 113.604Z" fill="white"/>
<path d="M59.279 129.851C59.1755 131.365 58.959 132.593 58.6296 133.535C58.0131 135.301 56.3896 136.919 54.5661 137.57C51.5827 138.633 48.4839 137.684 46.611 135.182C46.4792 135.005 46.2761 134.673 46.0016 134.186C45.8118 133.849 45.604 133.518 45.3781 133.193C46.5891 138.126 48.3341 142.521 50.6133 146.378C54.6901 153.28 60.2045 159 67.1565 163.537C73.9822 167.991 81.7492 170.684 89.8666 171.771C91.2643 171.959 92.6219 172.046 93.9395 172.03C92.6438 171.623 91.5505 171.046 90.6596 170.3C88.4173 168.42 87.4667 164.714 88.8102 162.175C89.8125 160.28 91.3278 158.925 93.356 158.11C93.3708 158.104 93.3836 158.094 93.3932 158.081C93.4028 158.068 93.4089 158.053 93.4108 158.038C93.4127 158.022 93.4104 158.006 93.4041 157.991C93.3977 157.976 93.3877 157.964 93.3748 157.954C93.3607 157.943 93.3427 157.933 93.3207 157.924C83.6079 157.413 74.5328 152.826 67.9706 145.795C63.7228 141.243 60.8256 135.928 59.279 129.851Z" fill="white"/>
<path d="M38.3853 153.99C38.8198 155.774 38.932 157.44 38.7218 158.987C38.2159 162.704 35.1312 206.576 31.4725 205.874C30.3831 205.664 28.7644 204.897 27.9739 204.246C27.417 203.787 26.988 203.477 26.6869 203.315C28.1472 205.857 29.9165 208.495 31.9949 211.228C36.8967 217.67 42.4409 181.544 49.1451 186.131C51.2266 187.555 53.3591 188.903 55.5426 190.175C56.2265 190.573 56.9434 190.931 57.6931 191.25C57.3292 190.765 56.9724 190.285 56.6226 189.809C55.3473 188.076 54.8814 186.029 55.3873 183.963C56.1567 180.833 59.246 178.382 62.6295 178.711C63.0922 178.755 63.7267 178.849 64.533 178.996C63.9667 178.647 63.3966 178.311 62.8225 177.988C59.2476 175.967 56.1057 173.859 53.3967 171.664C50.7286 169.504 48.0667 166.916 45.411 163.898C42.735 160.859 40.3931 157.556 38.3853 153.99Z" fill="white"/>
<path d="M57.6931 191.25C68.6435 197.078 81.1845 200.095 93.5701 200.52C94.0705 200.537 94.5873 200.536 95.1207 200.517C92.9089 199.561 91.0196 198.276 90.2102 195.907C89.4117 193.569 89.7074 191.395 91.0972 189.387C91.9756 188.118 93.3191 187.157 95.1277 186.502C92.2917 186.415 90.3819 186.307 89.3984 186.178C87.149 185.88 84.7444 185.593 82.6574 185.187C76.3296 183.96 70.2882 181.897 64.533 178.996C63.7267 178.849 63.0922 178.755 62.6295 178.711C59.246 178.382 56.1567 180.833 55.3873 183.963C54.8814 186.029 55.3473 188.076 56.6226 189.809C56.9724 190.285 57.3292 190.765 57.6931 191.25Z" fill="white"/>
<path d="M95.1277 186.502C93.3191 187.157 91.9756 188.118 91.0972 189.387C89.7074 191.395 89.4117 193.569 90.2102 195.907C91.0196 198.276 92.9089 199.561 95.1207 200.517C95.5465 200.55 96.003 200.618 96.4242 200.615C103.051 200.59 109.599 199.867 116.066 198.444C118.11 197.995 120.115 197.452 122.082 196.817C122.051 196.786 122.024 196.769 122 196.768C121.984 196.767 121.969 196.761 121.958 196.75C121.947 196.739 121.94 196.725 121.938 196.709C121.937 196.694 121.941 196.678 121.95 196.664C121.96 196.651 121.973 196.642 121.988 196.637C122.313 196.553 122.631 196.418 122.941 196.231C128.061 193.153 127.802 185.891 121.953 183.778C121.44 183.593 120.78 183.475 119.972 183.424C119.308 183.382 118.63 183.349 117.937 183.326C110.52 185.537 102.917 186.595 95.1277 186.502Z" fill="white"/>
</g>
<defs>
<clipPath id="clip0_1_1668">
<rect width="1205" height="110" fill="white"/>
</clipPath>
</defs>
</svg>
