<svg width="19" height="21" viewBox="0 0 19 21" fill="none" xmlns="http://www.w3.org/2000/svg">
<path d="M12 14V16M13 3.39683L13.7525 4L15 3M10 1H17V7H10V1ZM8 7H1L1 1L8 1V7ZM8 17H1L1 11H8V17ZM17.9112 17.2349C17.5146 18.4279 16.8508 20 16.8508 20L11.0887 19.9969C10.9649 19.7222 10.1706 17.8923 10.0476 16.9686C9.75836 15.5748 10.8223 14.2628 12.2702 14.2244L12.2777 14.2256V11.1628C12.2777 10.5206 12.8078 10 13.4617 10C14.1155 10 14.6456 10.5206 14.6456 11.1628V14.5667L14.6827 14.5721L16.6081 14.9903C17.633 15.2128 18.2376 16.255 17.9112 17.2349Z" stroke="#0073EE" stroke-miterlimit="10" stroke-linecap="round" stroke-linejoin="round"/>
</svg>
