<svg width="269" height="240" viewBox="0 0 269 240" fill="none" xmlns="http://www.w3.org/2000/svg">
<mask id="mask0_1_181" style="mask-type:alpha" maskUnits="userSpaceOnUse" x="0" y="0" width="269" height="240">
<rect width="269" height="240" fill="#0073EE"/>
</mask>
<g mask="url(#mask0_1_181)">
<rect width="269" height="240" fill="#0073EE"/>
<path d="M255.631 103.793C255.631 106.921 254.374 109.92 252.136 112.132C249.897 114.343 246.862 115.586 243.697 115.586C240.531 115.586 237.496 114.343 235.258 112.132C233.02 109.92 231.762 106.921 231.762 103.793C231.762 100.665 233.02 97.6657 235.258 95.4541C237.496 93.2425 240.531 92 243.697 92C246.862 92 249.897 93.2425 252.136 95.4541C254.374 97.6657 255.631 100.665 255.631 103.793Z" fill="white"/>
<path d="M253.835 171.691C253.759 171.534 253.707 171.696 253.68 172.178C253.631 173.014 253.488 173.803 253.252 174.544C251.792 179.132 247.555 181.866 242.803 181.029C239.783 180.496 237.066 178.354 236.011 175.418C235.904 175.119 235.787 174.545 235.661 173.695C235.576 173.111 235.455 172.538 235.298 171.976C235.281 162.676 235.273 142.996 235.273 133.661C235.273 131.04 235.425 129.286 235.729 128.399C236.976 124.771 240.533 122.233 244.522 122.181C247.954 122.134 250.616 123.572 252.508 126.496C254.003 128.804 253.897 130.912 253.897 134.24C253.902 145.729 253.904 164.666 253.904 170.327C253.904 170.803 253.881 171.258 253.835 171.691Z" fill="white"/>
<path d="M200.661 135.248C201.93 134.373 203.363 133.755 204.876 133.429C206.39 133.102 207.955 133.075 209.482 133.347C211.009 133.62 212.468 134.187 213.777 135.017C215.085 135.846 216.216 136.922 217.106 138.183C217.996 139.443 218.627 140.864 218.963 142.363C219.3 143.863 219.335 145.412 219.066 146.922C218.798 148.432 218.231 149.874 217.398 151.165C216.566 152.456 215.484 153.571 214.214 154.446C212.945 155.322 211.512 155.94 209.998 156.266C208.485 156.593 206.92 156.62 205.393 156.348C203.866 156.075 202.406 155.508 201.098 154.678C199.79 153.849 198.659 152.773 197.769 151.512C196.879 150.252 196.248 148.831 195.911 147.332C195.575 145.832 195.54 144.283 195.809 142.773C196.077 141.262 196.644 139.821 197.476 138.53C198.309 137.239 199.391 136.124 200.661 135.248Z" fill="white"/>
<path d="M181.189 180.231C181.189 183.314 179.95 186.27 177.744 188.45C175.538 190.63 172.546 191.855 169.426 191.855C166.306 191.855 163.313 190.63 161.107 188.45C158.901 186.27 157.662 183.314 157.662 180.231C157.662 177.148 158.901 174.191 161.107 172.011C163.313 169.831 166.306 168.606 169.426 168.606C172.546 168.606 175.538 169.831 177.744 172.011C179.95 174.191 181.189 177.148 181.189 180.231Z" fill="white"/>
<path d="M216.956 212.224C216.91 212.259 216.878 212.303 216.86 212.356C216.855 212.37 216.846 212.383 216.835 212.393C216.823 212.403 216.809 212.409 216.794 212.412C216.779 212.414 216.764 212.413 216.75 212.407C216.736 212.402 216.723 212.393 216.714 212.381C216.687 212.344 216.671 212.302 216.664 212.255C216.143 208.59 212.924 205.5 209.456 204.903C204.782 204.097 200.673 206.463 198.852 210.744C198.834 210.787 198.786 211.03 198.71 211.474C198.656 211.778 198.484 211.935 198.195 211.946C198.158 199.444 198.16 186.944 198.201 174.446C198.207 172.182 198.356 170.587 198.648 169.659C199.51 166.907 201.277 164.941 203.948 163.763C209.01 161.528 214.878 164.351 216.472 169.227C216.79 170.199 216.952 172.084 216.956 174.881C216.979 187.33 216.979 199.778 216.956 212.224Z" fill="white"/>
<path d="M253.835 171.691C254.028 173.888 253.913 176.423 253.916 178.194C253.939 217.001 253.607 293.673 253.603 298.758C253.601 301.276 253.429 304.576 253.088 308.66C251.988 321.798 248.254 334.227 241.885 345.946C241.362 346.908 240.809 347.82 240.226 348.683C239.829 348.895 239.264 349.303 238.53 349.905C237.488 350.76 235.354 351.769 233.918 352.045C229.095 352.967 225.029 295.312 224.362 290.427C224.085 288.394 224.233 286.204 224.806 283.859C225.277 282.856 225.782 286.957 226.319 285.945C226.137 286.338 227.173 284.336 226.319 285.945C230.922 330.052 234.743 310.812 234.833 299.065C234.853 296.484 235.207 219.343 235.211 177.091C235.211 175.629 235.112 173.717 235.298 171.976C235.455 172.538 235.576 173.111 235.661 173.695C235.787 174.545 235.904 175.119 236.011 175.418C237.066 178.354 239.783 180.496 242.803 181.029C247.555 181.866 251.792 179.132 253.252 174.544C253.488 173.803 253.631 173.014 253.68 172.178C253.707 171.696 253.759 171.534 253.835 171.691Z" fill="white"/>
<path d="M179.028 230.784C177.902 226.671 174.862 223.619 170.443 223.331C165.214 222.988 161.777 225.973 160.285 230.698C160.261 219.684 160.271 219.173 160.316 208.174C160.327 205.905 160.832 204.041 161.833 202.585C167.006 195.052 178.96 198.481 179.062 207.712C179.114 212.386 179.102 213.081 179.028 230.784Z" fill="white"/>
<path d="M216.956 212.224C216.929 222.93 216.929 233.635 216.956 244.339C216.964 248.473 216.508 252.535 215.588 256.528C215.29 256.955 215.016 257.39 214.766 257.833C214.404 258.473 214.137 258.909 213.963 259.142C211.494 262.43 207.409 263.677 203.477 262.28C201.073 261.425 198.933 259.298 198.121 256.978C197.686 255.74 197.401 254.126 197.264 252.136C197.905 249.78 198.224 247.718 198.22 245.948C198.189 234.613 198.18 223.279 198.195 211.946C198.484 211.935 198.656 211.778 198.71 211.474C198.786 211.03 198.834 210.787 198.852 210.744C200.673 206.463 204.782 204.097 209.456 204.903C212.924 205.5 216.143 208.59 216.664 212.255C216.671 212.302 216.687 212.344 216.714 212.381C216.723 212.393 216.736 212.402 216.75 212.407C216.764 212.413 216.779 212.414 216.794 212.412C216.809 212.409 216.823 212.403 216.835 212.393C216.846 212.383 216.855 212.37 216.86 212.356C216.878 212.303 216.91 212.259 216.956 212.224Z" fill="white"/>
<path d="M159.994 244.888C159.977 246.692 160.261 248.291 160.844 249.684C162.779 254.312 167.679 256.561 172.44 254.937C174.849 254.114 176.706 252.407 178.01 249.816C177.324 252.282 176.288 254.557 174.903 256.641C171.348 261.995 166.259 266.203 160.183 268.382C153.316 270.846 146.14 271.039 139.357 268.173C130.589 264.468 124.522 257.38 122.609 248.1C122.282 246.52 122.137 244.055 122.174 240.705C122.203 238.1 122.208 233.641 122.19 227.33C122.186 226.149 122.456 224.9 122.999 223.582C125.924 216.484 135.96 215.813 139.778 222.543C140.577 223.953 140.982 225.757 140.994 227.955C140.994 228.035 140.994 232.887 140.994 242.51C140.994 249.132 147.712 253.322 153.912 251.223C156.844 250.23 158.871 248.118 159.994 244.888Z" fill="white"/>
<path d="M179.028 230.784C178.982 235.373 178.988 239.968 179.046 244.569C179.069 246.251 178.724 247.999 178.01 249.816C176.706 252.407 174.849 254.114 172.44 254.937C167.679 256.561 162.779 254.312 160.844 249.684C160.261 248.291 159.977 246.692 159.994 244.888C160.155 243.883 160.238 243.221 160.242 242.902C160.269 238.826 160.283 234.758 160.285 230.698C161.777 225.973 165.214 222.988 170.443 223.331C174.862 223.619 177.902 226.671 179.028 230.784Z" fill="white"/>
<path d="M197.264 252.136C197.401 254.126 197.686 255.74 198.121 256.978C198.933 259.298 201.073 261.425 203.477 262.28C207.409 263.677 211.494 262.43 213.963 259.142C214.137 258.909 214.404 258.473 214.766 257.833C215.016 257.39 215.29 256.955 215.588 256.528C213.992 263.01 211.692 268.786 208.687 273.855C203.313 282.927 196.045 290.444 186.881 296.406C177.883 302.259 167.645 305.799 156.945 307.227C155.103 307.474 153.313 307.588 151.576 307.567C153.284 307.032 154.726 306.274 155.9 305.293C158.856 302.823 160.109 297.953 158.338 294.616C157.016 292.125 155.019 290.345 152.346 289.274C152.326 289.266 152.309 289.253 152.297 289.236C152.284 289.219 152.276 289.199 152.273 289.179C152.271 289.158 152.274 289.137 152.282 289.117C152.291 289.098 152.304 289.081 152.321 289.069C152.339 289.055 152.363 289.041 152.392 289.029C165.195 288.358 177.158 282.329 185.808 273.089C191.407 267.107 195.226 260.122 197.264 252.136Z" fill="white"/>
<path d="M224.806 283.859C224.233 286.204 224.085 288.394 224.362 290.427C225.029 295.312 229.095 352.967 233.918 352.045C235.354 351.769 237.488 350.76 238.53 349.905C239.264 349.303 239.829 348.895 240.226 348.683C238.301 352.023 235.969 355.489 233.229 359.081C226.768 367.548 219.46 320.07 210.623 326.099C207.879 327.971 205.068 329.742 202.19 331.414C201.288 331.937 200.343 332.408 199.355 332.826C199.835 332.189 200.305 331.558 200.766 330.932C202.447 328.655 203.061 325.965 202.394 323.249C201.38 319.136 197.308 315.916 192.848 316.348C192.238 316.405 191.402 316.53 190.339 316.722C191.085 316.264 191.837 315.823 192.594 315.398C197.306 312.742 201.447 309.971 205.018 307.086C208.535 304.248 212.044 300.847 215.545 296.881C219.072 292.887 222.159 288.546 224.806 283.859Z" fill="white"/>
<path d="M199.355 332.826C184.921 340.485 168.39 344.451 152.063 345.008C151.404 345.031 150.723 345.03 150.02 345.005C152.935 343.749 155.425 342.06 156.492 338.947C157.545 335.874 157.155 333.017 155.323 330.378C154.165 328.71 152.394 327.447 150.01 326.587C153.749 326.472 156.266 326.33 157.562 326.161C160.527 325.768 163.697 325.391 166.448 324.858C174.789 323.246 182.753 320.534 190.339 316.722C191.402 316.53 192.238 316.405 192.848 316.348C197.308 315.916 201.38 319.136 202.394 323.249C203.061 325.965 202.447 328.655 200.766 330.932C200.305 331.558 199.835 332.189 199.355 332.826Z" fill="white"/>
<path d="M150.01 326.587C152.394 327.447 154.165 328.71 155.323 330.378C157.155 333.017 157.545 335.874 156.492 338.947C155.425 342.06 152.935 343.749 150.02 345.005C149.458 345.048 148.856 345.137 148.301 345.134C139.565 345.101 130.935 344.15 122.41 342.281C119.716 341.69 117.072 340.977 114.48 340.142C114.521 340.101 114.557 340.079 114.588 340.077C114.609 340.077 114.629 340.068 114.643 340.054C114.658 340.04 114.668 340.021 114.669 340.001C114.671 339.98 114.666 339.959 114.654 339.942C114.642 339.924 114.624 339.912 114.604 339.906C114.176 339.796 113.757 339.618 113.348 339.373C106.599 335.327 106.94 325.784 114.65 323.007C115.326 322.764 116.197 322.609 117.262 322.541C118.136 322.486 119.03 322.443 119.944 322.413C129.72 325.318 139.742 326.709 150.01 326.587Z" fill="white"/>
</g>
</svg>
