<svg width="10" height="19" viewBox="0 0 10 19" fill="none" xmlns="http://www.w3.org/2000/svg">
<path d="M5.55778 18.8227L9.83442 15.3013C10.0882 15.0902 10.0449 14.782 9.74159 14.6089C9.43214 14.4358 8.98033 14.4653 8.72658 14.6722L5.72488 17.1422L5.72489 0.494C5.72489 0.223778 5.40305 -2.00939e-07 5.00076 -2.18524e-07C4.60466 -2.35838e-07 4.27664 0.219555 4.27664 0.494L4.27664 17.1422L1.27495 14.6722C1.02119 14.4611 0.563204 14.4358 0.25994 14.6089C0.0866454 14.706 3.04764e-07 14.8453 2.98489e-07 14.9889C2.93691e-07 15.0987 0.0557006 15.2127 0.167104 15.3013L4.44375 18.8227C4.57991 18.9367 4.78415 19 5.00076 19C5.21738 19 5.42162 18.9367 5.55778 18.8227Z" fill="white"/>
</svg>
